<?xml version="1.0" encoding="utf-8"?>
<!-- Generator: Adobe Illustrator 21.0.0, SVG Export Plug-In . SVG Version: 6.00 Build 0)  -->
<!DOCTYPE svg PUBLIC "-//W3C//DTD SVG 1.1//EN" "http://www.w3.org/Graphics/SVG/1.1/DTD/svg11.dtd">
<svg version="1.1" id="kaufman_law" xmlns="http://www.w3.org/2000/svg" xmlns:xlink="http://www.w3.org/1999/xlink" x="0px"
	 y="0px" viewBox="0 0 418.5 69.2" style="enable-background:new 0 0 418.5 69.2;" xml:space="preserve">
<style type="text/css">
	.st0{fill-rule:evenodd;clip-rule:evenodd;fill:url(#SVGID_1_);}
	.st1{fill-rule:evenodd;clip-rule:evenodd;fill:url(#SVGID_2_);}
	.st2{fill:#1B1E23;}
</style>
<g>
	<g>
		<g>
			<linearGradient id="SVGID_1_" gradientUnits="userSpaceOnUse" x1="-5.127274e-04" y1="62.0346" x2="62.0336" y2="5.361649e-04">
				<stop  offset="0" style="stop-color:#DBBD90"/>
				<stop  offset="0.292" style="stop-color:#D4AF6E"/>
				<stop  offset="0.7428" style="stop-color:#DCBE93"/>
				<stop  offset="1" style="stop-color:#D3AE6A"/>
			</linearGradient>
			<path class="st0" d="M58.9,3.1H3.1v55.8h55.8V3.1z M26.5,11.3L24.6,15H10.4l-1.9-3.7H26.5z M23.9,16.2l-1.1,2.2H12.2L11,16.2
				H23.9z M53.6,51.3h-16l-14-18.7h-1V48l3,2.8H9.4l3-2.8V19.6h2.5v28.3h1V19.6h3.2v28.3h1V19.6h2.5v10.7h0.7l13.1-13.6
				c0.9-1,1.8-2.8,0-3.3c-0.7-0.2-1.7-0.3-3.1-0.4v-2.2h17.6V13c-2.1,0.2-3.9,0.6-5.4,1.2c-1.5,0.5-2.9,1.5-4.3,2.7
				c-2,1.8-3.7,3.4-5,4.8c-1.3,1.3-3,3-5.1,5.1c1.8,2.2,4,5,6.6,8.2c2.6,3.2,5.1,6.4,7.7,9.4c0.7,0.8,1.4,1.5,2.2,2.2
				c0.8,0.7,1.8,1.3,2.8,1.7c0.5,0.2,1,0.4,1.6,0.5c0.6,0.1,1.1,0.2,1.6,0.2V51.3z M0,0v62h62V0H0z M60.3,60.3H1.8V1.8h58.5V60.3z"
				/>
		</g>
	</g>
	<g>
		<g>
			<linearGradient id="SVGID_2_" gradientUnits="userSpaceOnUse" x1="349.1839" y1="53.9083" x2="375.8239" y2="53.9083">
				<stop  offset="0" style="stop-color:#DCBE93"/>
				<stop  offset="0.7973" style="stop-color:#D3AE6A"/>
			</linearGradient>
			<path class="st1" d="M358.5,53.6v-5.4l-4.4,5.4H358.5z M367.5,46.9c-0.8,0-1.4,0.4-1.8,1.1c-0.5,0.7-0.7,1.7-0.7,3
				c0,1.2,0.2,2.2,0.6,3c0.4,0.8,1,1.1,1.8,1.1c0.8,0,1.4-0.4,1.9-1.1c0.4-0.8,0.6-1.7,0.6-3c0-1.3-0.2-2.3-0.7-3
				C368.9,47.3,368.3,46.9,367.5,46.9z M362.5,38.6c-7.4,0-13.3,6-13.3,13.3c0,5.9,3.8,10.8,9.1,12.6v4.6l4.3-2.4l4.3,2.4v-4.6
				c5.3-1.8,9.1-6.8,9.1-12.6C375.8,44.6,369.9,38.6,362.5,38.6z M362.5,64.5c-6.9,0-12.5-5.6-12.5-12.5c0-6.9,5.6-12.5,12.5-12.5
				c6.9,0,12.5,5.6,12.5,12.5C375,58.9,369.4,64.5,362.5,64.5z M362.5,39.8c-6.7,0-12.2,5.4-12.2,12.2c0,6.7,5.4,12.2,12.2,12.2
				c6.7,0,12.2-5.4,12.2-12.2C374.7,45.2,369.2,39.8,362.5,39.8z M361.7,54.7H360v3.7h-1.6v-3.7h-5.2v-1.3l5.7-7h1.1v7.2h1.7V54.7z
				 M370.6,54.5c-0.4,0.4-0.8,0.7-1.4,0.9c-0.5,0.2-1.1,0.3-1.8,0.3c-0.7,0-1.3-0.1-1.9-0.4c-0.6-0.2-1-0.6-1.3-1
				c-0.4-0.4-0.6-0.9-0.8-1.5c-0.2-0.6-0.3-1.2-0.3-1.8c0-0.7,0.1-1.3,0.3-1.8c0.2-0.5,0.4-1,0.8-1.5c0.4-0.4,0.8-0.8,1.4-1
				c0.6-0.2,1.2-0.4,1.9-0.4c0.7,0,1.4,0.1,1.9,0.4c0.5,0.3,1,0.6,1.3,1c0.3,0.4,0.6,0.9,0.8,1.5c0.2,0.6,0.3,1.2,0.3,1.8
				c0,0.7-0.1,1.4-0.3,2C371.2,53.6,371,54.1,370.6,54.5z"/>
		</g>
	</g>
	<path id="tagline" class="st2" d="M85.6,56.9h-2.9c-0.6-1-1.2-1.9-1.7-2.6c-0.5-0.7-1.1-1.5-1.7-2.3h-1.1v3.4c0,0.2,0,0.3,0.1,0.5
		c0.1,0.1,0.2,0.2,0.4,0.3c0.1,0,0.2,0.1,0.5,0.1c0.2,0,0.4,0,0.6,0.1v0.5h-4.5v-0.5c0.1,0,0.3,0,0.5-0.1c0.2,0,0.4-0.1,0.5-0.1
		c0.1-0.1,0.3-0.2,0.3-0.3c0.1-0.1,0.1-0.3,0.1-0.5v-7.8c0-0.2,0-0.3-0.1-0.5c0-0.1-0.2-0.2-0.4-0.3c-0.1,0-0.3-0.1-0.5-0.1
		c-0.2,0-0.4-0.1-0.5-0.1v-0.5h5c0.5,0,0.9,0,1.3,0.1c0.4,0.1,0.8,0.2,1.1,0.4c0.3,0.2,0.6,0.5,0.7,0.8c0.2,0.3,0.3,0.7,0.3,1.2
		c0,0.4-0.1,0.8-0.2,1.1c-0.1,0.3-0.3,0.6-0.6,0.8c-0.2,0.2-0.5,0.4-0.8,0.6c-0.3,0.2-0.7,0.3-1.1,0.4c0.5,0.7,1,1.3,1.3,1.8
		c0.4,0.5,0.8,1.1,1.3,1.7c0.2,0.3,0.4,0.5,0.6,0.7c0.2,0.1,0.4,0.3,0.5,0.4c0.1,0.1,0.3,0.1,0.5,0.1c0.2,0,0.4,0.1,0.5,0.1V56.9
		L85.6,56.9z M391.2,46.7c-0.1,0-0.2,0-0.4,0.1c-0.2,0.1-0.3,0.1-0.4,0.2c-0.2,0.1-0.3,0.2-0.4,0.3c-0.1,0.1-0.2,0.2-0.4,0.5
		c-0.4,0.6-0.8,1.1-1.1,1.7c-0.3,0.6-0.8,1.3-1.3,2.2c-0.2,0.3-0.3,0.6-0.4,0.8c-0.1,0.2-0.1,0.5-0.1,0.9v2.1c0,0.2,0,0.3,0.1,0.5
		c0.1,0.1,0.2,0.2,0.4,0.3c0.1,0,0.3,0.1,0.6,0.1c0.3,0.1,0.5,0.1,0.7,0.1v0.5h-5v-0.5c0.1,0,0.4,0,0.6-0.1c0.3,0,0.5-0.1,0.6-0.1
		c0.2-0.1,0.3-0.2,0.4-0.3c0.1-0.1,0.1-0.3,0.1-0.5v-2.6c0-0.1-0.1-0.2-0.1-0.4c-0.1-0.2-0.2-0.5-0.4-0.7c-0.3-0.6-0.6-1.2-1-1.9
		c-0.4-0.7-0.7-1.3-1-1.7c-0.2-0.3-0.3-0.5-0.4-0.7c-0.1-0.1-0.3-0.3-0.4-0.4c-0.1-0.1-0.3-0.1-0.4-0.2c-0.2,0-0.3-0.1-0.5-0.1v-0.5
		h4.6v0.5c-0.5,0-0.9,0-1.1,0.1c-0.2,0.1-0.3,0.1-0.3,0.3c0,0,0,0.1,0,0.2c0,0.1,0.1,0.2,0.1,0.3c0.1,0.1,0.1,0.3,0.2,0.5
		c0.1,0.2,0.2,0.3,0.3,0.5c0.2,0.4,0.5,0.9,0.7,1.3c0.3,0.4,0.6,1,1,1.7c0.8-1.3,1.4-2.3,1.8-3c0.4-0.7,0.6-1.1,0.6-1.3
		c0-0.1,0-0.2-0.1-0.3c-0.1-0.1-0.2-0.1-0.3-0.2c-0.1,0-0.3-0.1-0.5-0.1c-0.2,0-0.3,0-0.5,0v-0.5h3.7V46.7L391.2,46.7z M398,55.2
		c-0.3,0.6-0.7,1.1-1.3,1.4c-0.5,0.4-1.1,0.5-1.8,0.5c-0.6,0-1.1-0.1-1.6-0.3c-0.4-0.2-0.8-0.5-1.1-0.9c-0.3-0.4-0.5-0.8-0.7-1.3
		c-0.1-0.5-0.2-1-0.2-1.5c0-0.5,0.1-1,0.2-1.4c0.2-0.5,0.4-0.9,0.7-1.3c0.3-0.4,0.6-0.6,1.1-0.9c0.4-0.2,0.9-0.3,1.4-0.3
		c0.5,0,1,0.1,1.4,0.3c0.4,0.2,0.7,0.4,0.9,0.7c0.2,0.3,0.4,0.6,0.5,1c0.1,0.4,0.2,0.8,0.2,1.2V53h-4.9c0,0.5,0,0.9,0.1,1.3
		c0.1,0.4,0.2,0.7,0.4,1.1c0.2,0.3,0.5,0.5,0.8,0.7c0.3,0.2,0.7,0.3,1.1,0.3c0.4,0,0.8-0.1,1.2-0.3c0.3-0.2,0.6-0.6,0.9-1.1
		L398,55.2L398,55.2z M396.3,52.3c0-0.3,0-0.6-0.1-0.9c0-0.3-0.1-0.6-0.2-0.8c-0.1-0.2-0.3-0.4-0.5-0.6c-0.2-0.1-0.5-0.2-0.8-0.2
		c-0.5,0-1,0.2-1.3,0.7c-0.3,0.4-0.5,1.1-0.6,1.8H396.3L396.3,52.3z M405.9,56.8c-0.2,0.1-0.4,0.2-0.6,0.2c-0.2,0.1-0.4,0.1-0.6,0.1
		c-0.4,0-0.7-0.1-0.9-0.3c-0.2-0.2-0.4-0.5-0.4-0.8h0c-0.3,0.4-0.7,0.6-1.1,0.8c-0.4,0.2-0.8,0.3-1.4,0.3c-0.6,0-1-0.2-1.4-0.5
		c-0.4-0.3-0.5-0.8-0.5-1.3c0-0.3,0-0.5,0.1-0.8c0.1-0.2,0.2-0.4,0.4-0.6c0.1-0.1,0.3-0.3,0.5-0.4c0.2-0.1,0.4-0.2,0.6-0.3
		c0.2-0.1,0.7-0.2,1.4-0.5c0.7-0.2,1.2-0.4,1.4-0.5v-0.7c0-0.1,0-0.2,0-0.4c0-0.2-0.1-0.4-0.2-0.5c-0.1-0.2-0.2-0.4-0.4-0.5
		c-0.2-0.1-0.4-0.2-0.8-0.2c-0.2,0-0.5,0-0.6,0.1c-0.2,0.1-0.3,0.2-0.4,0.2c0,0.1,0,0.2,0.1,0.4c0.1,0.2,0.1,0.4,0.1,0.5
		c0,0.2-0.1,0.3-0.2,0.5c-0.2,0.1-0.4,0.2-0.7,0.2c-0.3,0-0.4-0.1-0.6-0.3c-0.1-0.2-0.2-0.4-0.2-0.6c0-0.2,0.1-0.5,0.2-0.7
		c0.2-0.2,0.4-0.4,0.6-0.6c0.2-0.1,0.5-0.3,0.8-0.4c0.3-0.1,0.6-0.1,0.9-0.1c0.4,0,0.8,0,1.1,0.1c0.3,0.1,0.6,0.2,0.9,0.4
		c0.3,0.2,0.5,0.4,0.6,0.8c0.1,0.3,0.2,0.7,0.2,1.2c0,0.7,0,1.4,0,1.9c0,0.6,0,1.2,0,1.8c0,0.2,0,0.4,0.1,0.5
		c0.1,0.1,0.2,0.2,0.3,0.3c0.1,0,0.2,0.1,0.4,0.1c0.2,0,0.3,0,0.5,0V56.8L405.9,56.8z M403.2,52.8c-0.4,0.1-0.8,0.3-1.1,0.4
		c-0.3,0.1-0.6,0.3-0.9,0.5c-0.3,0.2-0.4,0.4-0.6,0.6c-0.1,0.2-0.2,0.5-0.2,0.8c0,0.4,0.1,0.7,0.3,0.9c0.2,0.2,0.5,0.3,0.8,0.3
		c0.4,0,0.7-0.1,0.9-0.3c0.3-0.2,0.5-0.4,0.7-0.6L403.2,52.8L403.2,52.8z M412.3,50.4c0,0.3-0.1,0.5-0.2,0.7
		c-0.1,0.2-0.3,0.3-0.6,0.3c-0.3,0-0.5-0.1-0.6-0.2c-0.2-0.1-0.2-0.3-0.2-0.5c0-0.1,0-0.2,0-0.3c0-0.1,0-0.2,0.1-0.3
		c-0.2,0-0.5,0.1-0.8,0.3c-0.3,0.2-0.6,0.5-0.8,0.8v4.3c0,0.2,0,0.3,0.1,0.4c0.1,0.1,0.2,0.2,0.3,0.3c0.1,0.1,0.3,0.1,0.5,0.1
		c0.2,0,0.4,0,0.5,0.1v0.5h-3.9v-0.5c0.1,0,0.2,0,0.4,0c0.1,0,0.2,0,0.3-0.1c0.1,0,0.2-0.1,0.3-0.2c0.1-0.1,0.1-0.3,0.1-0.4v-4.6
		c0-0.2,0-0.3-0.1-0.5c-0.1-0.2-0.2-0.3-0.3-0.4c-0.1-0.1-0.2-0.1-0.3-0.1c-0.1,0-0.3,0-0.4-0.1v-0.5l2.5-0.2l0.1,0.1v1h0
		c0.3-0.4,0.7-0.7,1-0.9c0.4-0.2,0.7-0.3,1.1-0.3c0.3,0,0.6,0.1,0.8,0.3C412.2,49.8,412.3,50.1,412.3,50.4L412.3,50.4z M417.9,53.3
		c0.2,0.2,0.4,0.4,0.5,0.6c0.1,0.2,0.2,0.5,0.2,0.9c0,0.7-0.3,1.3-0.8,1.7c-0.5,0.4-1.2,0.7-2,0.7c-0.4,0-0.8-0.1-1.2-0.2
		c-0.4-0.2-0.6-0.3-0.8-0.4l-0.2,0.5H413l-0.1-2.6h0.5c0,0.2,0.1,0.4,0.3,0.7c0.1,0.3,0.3,0.5,0.5,0.7c0.2,0.2,0.4,0.4,0.7,0.6
		c0.3,0.1,0.6,0.2,0.9,0.2c0.5,0,0.9-0.1,1.1-0.3c0.3-0.2,0.4-0.5,0.4-0.9c0-0.2,0-0.4-0.1-0.5c-0.1-0.2-0.2-0.3-0.4-0.4
		c-0.2-0.1-0.4-0.2-0.6-0.3c-0.2-0.1-0.5-0.2-0.8-0.3c-0.2-0.1-0.5-0.2-0.8-0.3c-0.3-0.1-0.5-0.3-0.7-0.4c-0.2-0.2-0.4-0.4-0.5-0.7
		c-0.1-0.3-0.2-0.6-0.2-0.9c0-0.6,0.2-1.1,0.7-1.5c0.5-0.4,1.1-0.6,1.8-0.6c0.3,0,0.6,0,0.9,0.1c0.3,0.1,0.6,0.2,0.7,0.3l0.2-0.4
		h0.5l0.1,2.4h-0.5c-0.1-0.5-0.3-1-0.7-1.3c-0.3-0.3-0.8-0.5-1.3-0.5c-0.4,0-0.7,0.1-1,0.3c-0.2,0.2-0.4,0.5-0.4,0.8
		c0,0.2,0,0.4,0.1,0.6c0.1,0.2,0.2,0.3,0.4,0.4c0.2,0.1,0.3,0.2,0.6,0.3c0.2,0.1,0.5,0.2,0.9,0.3c0.3,0.1,0.6,0.2,0.9,0.4
		C417.5,52.9,417.7,53.1,417.9,53.3L417.9,53.3z M318.2,56.6c-0.3,0.1-0.6,0.2-0.9,0.3c-0.3,0.1-0.7,0.1-1.1,0.1
		c-0.6,0-1.1-0.2-1.3-0.5c-0.3-0.3-0.4-0.8-0.4-1.3v-5.1h-1.3v-0.7h1.4v-2.3h1.4v2.3h2.1v0.7H316v4.2c0,0.3,0,0.6,0,0.8
		c0,0.2,0.1,0.4,0.2,0.5c0.1,0.1,0.2,0.3,0.4,0.3c0.2,0.1,0.4,0.1,0.6,0.1c0.1,0,0.3,0,0.6,0c0.2,0,0.4-0.1,0.5-0.1V56.6L318.2,56.6
		z M327.1,56.9h-3.7v-0.5c0.1,0,0.2,0,0.4,0c0.1,0,0.3,0,0.3-0.1c0.1,0,0.2-0.1,0.3-0.2c0.1-0.1,0.1-0.3,0.1-0.4v-3.8
		c0-0.5-0.1-0.9-0.4-1.2c-0.3-0.3-0.6-0.4-0.9-0.4c-0.3,0-0.5,0-0.7,0.1c-0.2,0.1-0.4,0.2-0.6,0.3c-0.2,0.1-0.3,0.3-0.4,0.4
		c-0.1,0.1-0.2,0.2-0.2,0.3v4.3c0,0.2,0,0.3,0.1,0.4c0.1,0.1,0.2,0.2,0.3,0.3c0.1,0.1,0.2,0.1,0.3,0.1c0.1,0,0.3,0,0.4,0.1v0.5h-3.7
		v-0.5c0.1,0,0.2,0,0.4,0c0.1,0,0.2,0,0.3-0.1c0.1,0,0.2-0.1,0.3-0.2c0.1-0.1,0.1-0.3,0.1-0.4V47c0-0.2,0-0.3-0.1-0.5
		c-0.1-0.2-0.2-0.3-0.3-0.4c-0.1-0.1-0.3-0.1-0.5-0.1c-0.2,0-0.4,0-0.6-0.1v-0.5l2.8-0.2l0.1,0.1v5.2h0c0.2-0.2,0.3-0.3,0.5-0.4
		c0.1-0.1,0.3-0.3,0.5-0.4c0.2-0.1,0.4-0.2,0.7-0.3c0.3-0.1,0.6-0.1,0.9-0.1c0.7,0,1.2,0.2,1.5,0.6c0.4,0.4,0.5,1,0.5,1.8v3.9
		c0,0.2,0,0.3,0.1,0.4c0.1,0.1,0.2,0.2,0.3,0.3c0.1,0,0.2,0.1,0.3,0.1c0.1,0,0.2,0,0.4,0V56.9L327.1,56.9z M335.1,56.8
		c-0.2,0.1-0.4,0.2-0.6,0.2c-0.2,0.1-0.4,0.1-0.6,0.1c-0.4,0-0.7-0.1-0.9-0.3c-0.2-0.2-0.4-0.5-0.5-0.8h0c-0.3,0.4-0.7,0.6-1.1,0.8
		c-0.4,0.2-0.8,0.3-1.4,0.3c-0.6,0-1-0.2-1.4-0.5c-0.4-0.3-0.5-0.8-0.5-1.3c0-0.3,0-0.5,0.1-0.8c0.1-0.2,0.2-0.4,0.4-0.6
		c0.1-0.1,0.3-0.3,0.5-0.4c0.2-0.1,0.4-0.2,0.6-0.3c0.2-0.1,0.7-0.2,1.4-0.5c0.7-0.2,1.2-0.4,1.4-0.5v-0.7c0-0.1,0-0.2,0-0.4
		c0-0.2-0.1-0.4-0.2-0.5c-0.1-0.2-0.2-0.4-0.4-0.5c-0.2-0.1-0.4-0.2-0.8-0.2c-0.2,0-0.4,0-0.6,0.1c-0.2,0.1-0.3,0.2-0.4,0.2
		c0,0.1,0,0.2,0.1,0.4c0,0.2,0.1,0.4,0.1,0.5c0,0.2-0.1,0.3-0.2,0.5c-0.2,0.1-0.4,0.2-0.7,0.2c-0.2,0-0.4-0.1-0.6-0.3
		c-0.1-0.2-0.2-0.4-0.2-0.6c0-0.2,0.1-0.5,0.2-0.7c0.2-0.2,0.4-0.4,0.6-0.6c0.2-0.1,0.5-0.3,0.8-0.4c0.3-0.1,0.6-0.1,0.9-0.1
		c0.4,0,0.8,0,1.1,0.1c0.3,0.1,0.6,0.2,0.9,0.4c0.3,0.2,0.4,0.4,0.6,0.8c0.1,0.3,0.2,0.7,0.2,1.2c0,0.7,0,1.4,0,1.9
		c0,0.6,0,1.2,0,1.8c0,0.2,0,0.4,0.1,0.5c0.1,0.1,0.2,0.2,0.3,0.3c0.1,0,0.2,0.1,0.4,0.1c0.2,0,0.3,0,0.5,0V56.8L335.1,56.8z
		 M332.4,52.8c-0.4,0.1-0.8,0.3-1.1,0.4c-0.3,0.1-0.6,0.3-0.9,0.5c-0.3,0.2-0.5,0.4-0.6,0.6c-0.1,0.2-0.2,0.5-0.2,0.8
		c0,0.4,0.1,0.7,0.3,0.9c0.2,0.2,0.5,0.3,0.8,0.3c0.4,0,0.7-0.1,0.9-0.3c0.3-0.2,0.5-0.4,0.7-0.6L332.4,52.8L332.4,52.8z M344,56.9
		h-3.7v-0.5c0.1,0,0.2,0,0.4,0c0.1,0,0.3,0,0.3-0.1c0.1,0,0.2-0.1,0.3-0.2c0.1-0.1,0.1-0.3,0.1-0.4v-3.8c0-0.5-0.1-0.9-0.4-1.2
		c-0.2-0.3-0.6-0.4-0.9-0.4c-0.3,0-0.5,0-0.7,0.1c-0.2,0.1-0.4,0.2-0.6,0.3c-0.2,0.1-0.3,0.2-0.4,0.4c-0.1,0.1-0.2,0.2-0.2,0.3v4.3
		c0,0.2,0,0.3,0.1,0.4c0.1,0.1,0.2,0.2,0.3,0.3c0.1,0.1,0.2,0.1,0.3,0.1c0.1,0,0.3,0,0.4,0.1v0.5h-3.7v-0.5c0.1,0,0.2,0,0.4,0
		c0.1,0,0.2,0,0.3-0.1c0.1,0,0.2-0.1,0.3-0.2c0.1-0.1,0.1-0.3,0.1-0.4v-4.6c0-0.2,0-0.3-0.1-0.5c-0.1-0.1-0.2-0.3-0.3-0.4
		c-0.1-0.1-0.2-0.1-0.3-0.1c-0.1,0-0.3,0-0.4-0.1v-0.5l2.5-0.2l0.1,0.1v1h0c0.1-0.1,0.3-0.3,0.5-0.4c0.2-0.2,0.4-0.3,0.5-0.4
		c0.2-0.1,0.4-0.2,0.7-0.3c0.3-0.1,0.5-0.1,0.9-0.1c0.7,0,1.2,0.2,1.6,0.7c0.3,0.4,0.5,1,0.5,1.8v3.9c0,0.2,0,0.3,0.1,0.4
		c0.1,0.1,0.2,0.2,0.3,0.3c0.1,0.1,0.2,0.1,0.3,0.1c0.1,0,0.2,0,0.4,0V56.9L344,56.9z M286.9,56.9h-3.6v-0.5c0.1,0,0.2,0,0.4,0
		c0.1,0,0.2,0,0.3-0.1c0.1,0,0.2-0.1,0.3-0.2c0.1-0.1,0.1-0.3,0.1-0.4v-3.8c0-0.5-0.1-0.9-0.4-1.2c-0.2-0.3-0.5-0.4-0.9-0.4
		c-0.2,0-0.5,0-0.7,0.1c-0.2,0.1-0.4,0.2-0.6,0.3c-0.1,0.1-0.3,0.2-0.4,0.4c-0.1,0.1-0.2,0.2-0.2,0.3v4.3c0,0.2,0,0.3,0.1,0.4
		c0.1,0.1,0.2,0.2,0.3,0.3c0.1,0,0.2,0.1,0.3,0.1c0.1,0,0.2,0,0.4,0v0.5h-3.6v-0.5c0.1,0,0.2,0,0.3,0c0.1,0,0.2,0,0.3-0.1
		c0.1,0,0.2-0.1,0.3-0.2c0.1-0.1,0.1-0.3,0.1-0.4v-3.8c0-0.5-0.1-0.9-0.4-1.2c-0.2-0.3-0.5-0.4-0.9-0.4c-0.2,0-0.5,0-0.7,0.1
		c-0.2,0.1-0.4,0.2-0.6,0.3c-0.1,0.1-0.3,0.2-0.4,0.4c-0.1,0.1-0.2,0.2-0.2,0.3v4.3c0,0.2,0,0.3,0.1,0.4c0.1,0.1,0.2,0.2,0.3,0.3
		c0.1,0.1,0.2,0.1,0.3,0.1c0.1,0,0.2,0,0.4,0.1v0.5h-3.6v-0.5c0.1,0,0.2,0,0.4,0c0.1,0,0.2,0,0.3-0.1c0.1,0,0.3-0.1,0.3-0.2
		c0.1-0.1,0.1-0.3,0.1-0.4V51c0-0.2,0-0.3-0.1-0.4c-0.1-0.1-0.2-0.2-0.3-0.3c-0.1-0.1-0.2-0.1-0.4-0.1c-0.1,0-0.3-0.1-0.4-0.1v-0.5
		l2.5-0.2l0.1,0.1v1.1h0c0.1-0.1,0.3-0.3,0.5-0.4c0.2-0.2,0.3-0.3,0.5-0.4c0.2-0.1,0.4-0.2,0.7-0.3c0.3-0.1,0.6-0.1,0.9-0.1
		c0.5,0,0.9,0.1,1.2,0.4c0.3,0.3,0.6,0.6,0.7,0.9c0.2-0.2,0.3-0.3,0.5-0.5c0.1-0.1,0.3-0.3,0.5-0.4c0.2-0.1,0.4-0.2,0.7-0.3
		c0.3-0.1,0.6-0.1,0.9-0.1c0.6,0,1.1,0.2,1.5,0.6c0.4,0.4,0.6,1.1,0.6,1.9v3.8c0,0.2,0,0.3,0.1,0.4c0.1,0.1,0.2,0.2,0.3,0.3
		c0.1,0,0.2,0.1,0.3,0.1c0.1,0,0.2,0,0.4,0V56.9L286.9,56.9z M295,53.1c0,0.5-0.1,1-0.2,1.5c-0.2,0.5-0.4,0.9-0.7,1.3
		c-0.3,0.4-0.8,0.7-1.2,0.9c-0.5,0.2-1,0.3-1.5,0.3c-0.5,0-0.9-0.1-1.4-0.3c-0.4-0.2-0.8-0.4-1.1-0.8c-0.3-0.3-0.6-0.7-0.8-1.2
		c-0.2-0.5-0.3-1-0.3-1.6c0-1.2,0.3-2.1,1-2.9c0.7-0.7,1.6-1.1,2.7-1.1c1,0,1.9,0.4,2.6,1.1C294.7,51,295,52,295,53.1L295,53.1z
		 M293.4,53.1c0-0.4,0-0.8-0.1-1.2c-0.1-0.4-0.2-0.8-0.3-1.1c-0.2-0.3-0.4-0.6-0.6-0.8c-0.3-0.2-0.6-0.3-1-0.3c-0.4,0-0.7,0.1-1,0.3
		c-0.3,0.2-0.5,0.5-0.7,0.8c-0.2,0.3-0.3,0.7-0.3,1c-0.1,0.4-0.1,0.8-0.1,1.1c0,0.5,0,0.9,0.1,1.3c0.1,0.4,0.2,0.8,0.4,1.1
		c0.2,0.3,0.4,0.6,0.6,0.8c0.3,0.2,0.6,0.3,1,0.3c0.6,0,1.1-0.3,1.5-0.9C293.2,55.1,293.4,54.2,293.4,53.1L293.4,53.1z M301.8,50.4
		c0,0.3-0.1,0.5-0.2,0.7c-0.1,0.2-0.3,0.3-0.6,0.3c-0.3,0-0.5-0.1-0.7-0.2c-0.1-0.1-0.2-0.3-0.2-0.5c0-0.1,0-0.2,0-0.3
		c0-0.1,0-0.2,0.1-0.3c-0.2,0-0.5,0.1-0.8,0.3c-0.3,0.2-0.6,0.5-0.8,0.8v4.3c0,0.2,0,0.3,0.1,0.4c0.1,0.1,0.2,0.2,0.3,0.3
		c0.1,0.1,0.3,0.1,0.5,0.1c0.2,0,0.4,0,0.5,0.1v0.5h-3.9v-0.5c0.1,0,0.2,0,0.4,0c0.1,0,0.2,0,0.3-0.1c0.1,0,0.2-0.1,0.3-0.2
		c0.1-0.1,0.1-0.3,0.1-0.4v-4.6c0-0.2,0-0.3-0.1-0.5c-0.1-0.2-0.2-0.3-0.3-0.4c-0.1-0.1-0.2-0.1-0.3-0.1c-0.1,0-0.3,0-0.4-0.1v-0.5
		l2.5-0.2l0.1,0.1v1h0c0.3-0.4,0.7-0.7,1-0.9c0.4-0.2,0.7-0.3,1-0.3c0.3,0,0.6,0.1,0.8,0.3C301.7,49.8,301.8,50.1,301.8,50.4
		L301.8,50.4z M309,55.2c-0.3,0.6-0.7,1.1-1.3,1.4c-0.5,0.4-1.1,0.5-1.8,0.5c-0.6,0-1.1-0.1-1.6-0.3c-0.5-0.2-0.8-0.5-1.1-0.9
		c-0.3-0.4-0.5-0.8-0.7-1.3c-0.1-0.5-0.2-1-0.2-1.5c0-0.5,0.1-1,0.2-1.4c0.2-0.5,0.4-0.9,0.7-1.3c0.3-0.4,0.6-0.6,1.1-0.9
		c0.4-0.2,0.9-0.3,1.4-0.3c0.5,0,1,0.1,1.4,0.3c0.4,0.2,0.7,0.4,0.9,0.7c0.2,0.3,0.4,0.6,0.5,1c0.1,0.4,0.2,0.8,0.2,1.2V53h-4.9
		c0,0.5,0,0.9,0.1,1.3c0.1,0.4,0.2,0.7,0.4,1.1c0.2,0.3,0.5,0.5,0.8,0.7c0.3,0.2,0.7,0.3,1.1,0.3c0.4,0,0.8-0.1,1.2-0.3
		c0.3-0.2,0.6-0.6,0.9-1.1L309,55.2L309,55.2z M307.4,52.3c0-0.3,0-0.6-0.1-0.9c0-0.3-0.1-0.6-0.2-0.8c-0.1-0.2-0.3-0.4-0.5-0.6
		c-0.2-0.1-0.5-0.2-0.8-0.2c-0.5,0-1,0.2-1.3,0.7c-0.3,0.4-0.5,1.1-0.6,1.8H307.4L307.4,52.3z M256.2,46.1c0,0.2-0.1,0.4-0.2,0.6
		c-0.1,0.2-0.3,0.2-0.6,0.2c-0.2,0-0.3,0-0.4-0.1c-0.1-0.1-0.2-0.2-0.3-0.3c-0.1-0.1-0.2-0.2-0.3-0.4c-0.1-0.1-0.2-0.3-0.2-0.3
		c-0.3,0-0.6,0.3-0.8,0.7c-0.2,0.5-0.3,1.2-0.3,2.2v0.8h1.9v0.7h-1.9v5.4c0,0.2,0,0.3,0.1,0.4c0.1,0.1,0.2,0.2,0.3,0.3
		c0.1,0,0.3,0.1,0.5,0.1c0.2,0,0.4,0,0.5,0.1v0.5h-3.9v-0.5c0.1,0,0.2,0,0.4,0c0.1,0,0.2,0,0.3-0.1c0.1,0,0.2-0.1,0.3-0.2
		c0.1-0.1,0.1-0.3,0.1-0.4v-5.4h-1.5v-0.7h1.5V49c0-1.1,0.3-2.1,0.9-2.8c0.6-0.7,1.3-1.1,2.2-1.1c0.4,0,0.8,0.1,1,0.3
		C256,45.7,256.2,45.9,256.2,46.1L256.2,46.1z M262.9,53.1c0,0.5-0.1,1-0.2,1.5c-0.2,0.5-0.4,0.9-0.7,1.3c-0.3,0.4-0.8,0.7-1.2,0.9
		c-0.5,0.2-1,0.3-1.5,0.3c-0.5,0-0.9-0.1-1.4-0.3c-0.4-0.2-0.8-0.4-1.1-0.8c-0.3-0.3-0.6-0.7-0.8-1.2c-0.2-0.5-0.3-1-0.3-1.6
		c0-1.2,0.3-2.1,1-2.9c0.7-0.7,1.6-1.1,2.7-1.1c1,0,1.9,0.4,2.6,1.1C262.6,51,262.9,52,262.9,53.1L262.9,53.1z M261.4,53.1
		c0-0.4,0-0.8-0.1-1.2c-0.1-0.4-0.2-0.8-0.3-1.1c-0.2-0.3-0.4-0.6-0.6-0.8c-0.3-0.2-0.6-0.3-1-0.3c-0.4,0-0.7,0.1-1,0.3
		c-0.3,0.2-0.5,0.5-0.7,0.8c-0.2,0.3-0.3,0.7-0.3,1c-0.1,0.4-0.1,0.8-0.1,1.1c0,0.5,0,0.9,0.1,1.3c0.1,0.4,0.2,0.8,0.4,1.1
		c0.2,0.3,0.4,0.6,0.6,0.8c0.3,0.2,0.6,0.3,1,0.3c0.6,0,1.1-0.3,1.5-0.9C261.2,55.1,261.4,54.2,261.4,53.1L261.4,53.1z M269.7,50.4
		c0,0.3-0.1,0.5-0.2,0.7c-0.1,0.2-0.3,0.3-0.6,0.3c-0.3,0-0.5-0.1-0.6-0.2c-0.1-0.1-0.2-0.3-0.2-0.5c0-0.1,0-0.2,0-0.3
		c0-0.1,0-0.2,0-0.3c-0.2,0-0.5,0.1-0.8,0.3c-0.3,0.2-0.6,0.5-0.8,0.8v4.3c0,0.2,0,0.3,0.1,0.4c0.1,0.1,0.2,0.2,0.3,0.3
		c0.1,0.1,0.3,0.1,0.5,0.1c0.2,0,0.4,0,0.5,0.1v0.5H264v-0.5c0.1,0,0.2,0,0.4,0c0.1,0,0.2,0,0.3-0.1c0.1,0,0.2-0.1,0.3-0.2
		c0.1-0.1,0.1-0.3,0.1-0.4v-4.6c0-0.2,0-0.3-0.1-0.5c-0.1-0.2-0.2-0.3-0.3-0.4c-0.1-0.1-0.2-0.1-0.3-0.1c-0.1,0-0.3,0-0.4-0.1v-0.5
		l2.5-0.2l0.1,0.1v1h0c0.3-0.4,0.7-0.7,1-0.9c0.4-0.2,0.7-0.3,1.1-0.3c0.3,0,0.6,0.1,0.8,0.3C269.6,49.8,269.7,50.1,269.7,50.4
		L269.7,50.4z M200.4,56.9h-4.8v-0.5c0.1,0,0.3,0,0.6,0c0.3,0,0.4,0,0.5-0.1c0.2-0.1,0.3-0.2,0.4-0.3c0.1-0.1,0.1-0.3,0.1-0.5v-7.8
		c0-0.2,0-0.3-0.1-0.4c-0.1-0.1-0.2-0.2-0.4-0.3c-0.2-0.1-0.3-0.1-0.6-0.2c-0.2-0.1-0.4-0.1-0.6-0.1v-0.5h4.8v0.5
		c-0.2,0-0.3,0-0.6,0.1c-0.2,0-0.4,0.1-0.6,0.1c-0.2,0.1-0.3,0.2-0.4,0.3c-0.1,0.1-0.1,0.3-0.1,0.5v7.8c0,0.2,0,0.3,0.1,0.4
		c0.1,0.1,0.2,0.2,0.4,0.3c0.1,0,0.3,0.1,0.5,0.1c0.2,0.1,0.4,0.1,0.6,0.1V56.9L200.4,56.9z M209.8,56.9h-3.7v-0.5
		c0.1,0,0.2,0,0.4,0c0.1,0,0.3,0,0.3-0.1c0.1,0,0.2-0.1,0.3-0.2c0.1-0.1,0.1-0.3,0.1-0.4v-3.8c0-0.5-0.1-0.9-0.4-1.2
		c-0.3-0.3-0.6-0.4-0.9-0.4c-0.3,0-0.5,0-0.7,0.1c-0.2,0.1-0.4,0.2-0.6,0.3c-0.2,0.1-0.3,0.2-0.4,0.4c-0.1,0.1-0.2,0.2-0.2,0.3v4.3
		c0,0.2,0,0.3,0.1,0.4c0.1,0.1,0.2,0.2,0.3,0.3c0.1,0.1,0.2,0.1,0.3,0.1c0.1,0,0.3,0,0.4,0.1v0.5h-3.7v-0.5c0.1,0,0.2,0,0.4,0
		c0.1,0,0.2,0,0.3-0.1c0.1,0,0.2-0.1,0.3-0.2c0.1-0.1,0.1-0.3,0.1-0.4v-4.6c0-0.2,0-0.3-0.1-0.5c-0.1-0.1-0.2-0.3-0.3-0.4
		c-0.1-0.1-0.2-0.1-0.3-0.1c-0.1,0-0.3,0-0.4-0.1v-0.5l2.5-0.2l0.1,0.1v1h0c0.1-0.1,0.3-0.3,0.5-0.4c0.2-0.2,0.4-0.3,0.5-0.4
		c0.2-0.1,0.4-0.2,0.7-0.3c0.3-0.1,0.5-0.1,0.9-0.1c0.7,0,1.2,0.2,1.6,0.7c0.3,0.4,0.5,1,0.5,1.8v3.9c0,0.2,0,0.3,0.1,0.4
		c0.1,0.1,0.2,0.2,0.3,0.3c0.1,0.1,0.2,0.1,0.3,0.1c0.1,0,0.2,0,0.4,0V56.9L209.8,56.9z M213.4,56.5c0,0.6-0.1,1.1-0.2,1.6
		c-0.2,0.5-0.4,0.9-0.6,1.2c-0.3,0.3-0.6,0.6-1,0.8c-0.4,0.2-0.8,0.3-1.2,0.3c-0.5,0-0.8-0.1-1-0.3c-0.2-0.2-0.3-0.4-0.3-0.6
		c0-0.2,0.1-0.4,0.2-0.6c0.1-0.2,0.3-0.2,0.5-0.2c0.2,0,0.3,0,0.4,0.1c0.1,0.1,0.2,0.1,0.3,0.3c0.1,0.1,0.2,0.2,0.2,0.3
		c0.1,0.1,0.2,0.3,0.2,0.4c0.4,0,0.7-0.2,0.8-0.7c0.2-0.5,0.2-1.2,0.2-2.2v-5.6c0-0.2,0-0.3-0.1-0.5c-0.1-0.1-0.2-0.3-0.3-0.4
		c-0.1-0.1-0.3-0.1-0.6-0.2c-0.3-0.1-0.5-0.1-0.7-0.1v-0.5l3-0.2l0.1,0.1V56.5L213.4,56.5z M213.5,46.4c0,0.3-0.1,0.5-0.3,0.8
		c-0.2,0.2-0.4,0.3-0.7,0.3c-0.3,0-0.5-0.1-0.7-0.3c-0.2-0.2-0.3-0.4-0.3-0.7c0-0.3,0.1-0.5,0.3-0.7c0.2-0.2,0.4-0.3,0.7-0.3
		c0.3,0,0.5,0.1,0.7,0.3C213.5,46,213.5,46.2,213.5,46.4L213.5,46.4z M223.2,56.8l-2.4,0.2l-0.1-0.1v-0.9h0
		c-0.1,0.1-0.3,0.3-0.4,0.4c-0.1,0.1-0.3,0.3-0.5,0.4c-0.2,0.1-0.4,0.2-0.7,0.3c-0.2,0.1-0.5,0.1-0.9,0.1c-0.7,0-1.2-0.2-1.5-0.6
		c-0.3-0.4-0.5-1.1-0.5-1.9V51c0-0.2,0-0.3-0.1-0.5c-0.1-0.1-0.2-0.2-0.3-0.3c-0.1-0.1-0.2-0.1-0.3-0.1c-0.1,0-0.3,0-0.4-0.1v-0.5
		l2.5-0.2l0.1,0.1v5.2c0,0.5,0.1,0.9,0.4,1.2c0.2,0.3,0.5,0.4,0.9,0.4c0.3,0,0.5,0,0.7-0.1c0.2-0.1,0.4-0.2,0.5-0.3
		c0.1-0.1,0.3-0.2,0.4-0.3c0.1-0.1,0.2-0.2,0.2-0.3V51c0-0.2,0-0.3-0.1-0.4c-0.1-0.1-0.2-0.2-0.3-0.3c-0.1-0.1-0.2-0.1-0.4-0.1
		c-0.2,0-0.4,0-0.6,0v-0.5l2.7-0.2l0.1,0.1v5.9c0,0.2,0,0.3,0.1,0.4c0.1,0.1,0.2,0.2,0.3,0.3c0.1,0.1,0.2,0.1,0.3,0.1
		c0.1,0,0.3,0,0.4,0V56.8L223.2,56.8z M229.9,50.4c0,0.3-0.1,0.5-0.2,0.7c-0.1,0.2-0.3,0.3-0.6,0.3c-0.3,0-0.5-0.1-0.6-0.2
		c-0.1-0.1-0.2-0.3-0.2-0.5c0-0.1,0-0.2,0-0.3c0-0.1,0-0.2,0-0.3c-0.2,0-0.5,0.1-0.8,0.3c-0.3,0.2-0.6,0.5-0.8,0.8v4.3
		c0,0.2,0,0.3,0.1,0.4c0.1,0.1,0.2,0.2,0.3,0.3c0.1,0.1,0.3,0.1,0.5,0.1c0.2,0,0.4,0,0.5,0.1v0.5h-3.9v-0.5c0.1,0,0.2,0,0.4,0
		c0.1,0,0.2,0,0.3-0.1c0.1,0,0.2-0.1,0.3-0.2c0.1-0.1,0.1-0.3,0.1-0.4v-4.6c0-0.2,0-0.3-0.1-0.5c-0.1-0.2-0.2-0.3-0.3-0.4
		c-0.1-0.1-0.2-0.1-0.3-0.1c-0.1,0-0.3,0-0.4-0.1v-0.5l2.5-0.2l0.1,0.1v1h0c0.3-0.4,0.7-0.7,1-0.9c0.4-0.2,0.7-0.3,1.1-0.3
		c0.3,0,0.6,0.1,0.8,0.3C229.8,49.8,229.9,50.1,229.9,50.4L229.9,50.4z M237.1,55.2c-0.3,0.6-0.7,1.1-1.3,1.4
		c-0.5,0.4-1.1,0.5-1.8,0.5c-0.6,0-1.1-0.1-1.6-0.3c-0.5-0.2-0.8-0.5-1.1-0.9c-0.3-0.4-0.5-0.8-0.7-1.3c-0.1-0.5-0.2-1-0.2-1.5
		c0-0.5,0.1-1,0.2-1.4c0.2-0.5,0.4-0.9,0.7-1.3c0.3-0.4,0.6-0.6,1.1-0.9c0.4-0.2,0.9-0.3,1.4-0.3c0.5,0,1,0.1,1.4,0.3
		c0.4,0.2,0.7,0.4,0.9,0.7c0.2,0.3,0.4,0.6,0.5,1c0.1,0.4,0.2,0.8,0.2,1.2V53H232c0,0.5,0,0.9,0.1,1.3c0.1,0.4,0.2,0.7,0.4,1.1
		c0.2,0.3,0.5,0.5,0.8,0.7c0.3,0.2,0.7,0.3,1.1,0.3c0.4,0,0.8-0.1,1.2-0.3c0.3-0.2,0.6-0.6,0.9-1.1L237.1,55.2L237.1,55.2z
		 M235.4,52.3c0-0.3,0-0.6-0.1-0.9c-0.1-0.3-0.1-0.6-0.2-0.8c-0.1-0.2-0.3-0.4-0.5-0.6c-0.2-0.1-0.5-0.2-0.8-0.2
		c-0.5,0-1,0.2-1.3,0.7c-0.3,0.4-0.5,1.1-0.6,1.8H235.4L235.4,52.3z M246.2,56.8l-2.6,0.2l-0.1-0.1v-0.7l-0.1,0
		c-0.3,0.3-0.6,0.5-1,0.7c-0.4,0.2-0.8,0.3-1.2,0.3c-0.4,0-0.8-0.1-1.2-0.3c-0.4-0.2-0.7-0.5-1-0.8c-0.3-0.3-0.5-0.8-0.7-1.3
		c-0.2-0.5-0.3-1-0.3-1.6c0-0.5,0.1-1,0.3-1.5c0.2-0.5,0.4-0.9,0.8-1.3c0.3-0.3,0.7-0.6,1.1-0.8c0.4-0.2,0.9-0.3,1.4-0.3
		c0.3,0,0.7,0,1,0.1c0.3,0.1,0.6,0.2,0.9,0.3v-2.6c0-0.2,0-0.4-0.1-0.6c-0.1-0.2-0.2-0.3-0.3-0.4c-0.1-0.1-0.3-0.2-0.6-0.2
		c-0.2,0-0.5-0.1-0.8-0.1v-0.5l3-0.2l0.1,0.1v10.1c0,0.2,0,0.3,0.1,0.5c0.1,0.1,0.2,0.2,0.3,0.3c0.1,0.1,0.2,0.1,0.4,0.1
		c0.2,0,0.3,0,0.5,0V56.8L246.2,56.8z M243.4,55.5v-4.4c0-0.1-0.1-0.3-0.2-0.4c-0.1-0.1-0.2-0.3-0.3-0.4c-0.1-0.1-0.3-0.2-0.5-0.3
		c-0.2-0.1-0.4-0.1-0.7-0.1c-0.3,0-0.6,0.1-0.8,0.2c-0.3,0.2-0.5,0.4-0.7,0.7c-0.2,0.3-0.3,0.6-0.4,1.1c-0.1,0.4-0.2,0.9-0.2,1.4
		c0,0.4,0,0.8,0.1,1.2c0.1,0.3,0.2,0.7,0.4,1c0.2,0.3,0.4,0.5,0.7,0.7c0.3,0.2,0.6,0.3,1,0.3c0.4,0,0.7-0.1,1-0.3
		C243,55.9,243.2,55.7,243.4,55.5L243.4,55.5z M174.6,56.6c-0.3,0.1-0.6,0.2-0.9,0.3c-0.3,0.1-0.6,0.1-1.1,0.1
		c-0.6,0-1.1-0.2-1.3-0.5c-0.3-0.3-0.4-0.8-0.4-1.3v-5.1h-1.3v-0.7h1.4v-2.3h1.4v2.3h2.1v0.7h-2.1v4.2c0,0.3,0,0.6,0,0.8
		c0,0.2,0.1,0.4,0.2,0.5c0.1,0.1,0.2,0.3,0.4,0.3c0.2,0.1,0.4,0.1,0.7,0.1c0.1,0,0.3,0,0.6,0c0.2,0,0.4-0.1,0.5-0.1V56.6L174.6,56.6
		z M183.4,56.9h-3.7v-0.5c0.1,0,0.2,0,0.4,0c0.1,0,0.3,0,0.3-0.1c0.1,0,0.2-0.1,0.3-0.2c0.1-0.1,0.1-0.3,0.1-0.4v-3.8
		c0-0.5-0.1-0.9-0.4-1.2c-0.3-0.3-0.6-0.4-0.9-0.4c-0.3,0-0.5,0-0.7,0.1c-0.2,0.1-0.4,0.2-0.6,0.3c-0.2,0.1-0.3,0.3-0.4,0.4
		c-0.1,0.1-0.2,0.2-0.2,0.3v4.3c0,0.2,0,0.3,0.1,0.4c0.1,0.1,0.2,0.2,0.3,0.3c0.1,0.1,0.2,0.1,0.3,0.1c0.1,0,0.3,0,0.4,0.1v0.5h-3.7
		v-0.5c0.1,0,0.2,0,0.4,0c0.1,0,0.2,0,0.3-0.1c0.1,0,0.2-0.1,0.3-0.2c0.1-0.1,0.1-0.3,0.1-0.4V47c0-0.2,0-0.3-0.1-0.5
		c-0.1-0.2-0.2-0.3-0.3-0.4c-0.1-0.1-0.3-0.1-0.5-0.1c-0.2,0-0.4,0-0.6-0.1v-0.5l2.8-0.2l0.1,0.1v5.2h0c0.2-0.2,0.3-0.3,0.5-0.4
		c0.1-0.1,0.3-0.3,0.5-0.4c0.2-0.1,0.4-0.2,0.7-0.3c0.3-0.1,0.5-0.1,0.9-0.1c0.7,0,1.2,0.2,1.5,0.6c0.4,0.4,0.5,1,0.5,1.8v3.9
		c0,0.2,0,0.3,0.1,0.4c0.1,0.1,0.2,0.2,0.3,0.3c0.1,0,0.2,0.1,0.3,0.1c0.1,0,0.2,0,0.4,0V56.9L183.4,56.9z M190.9,55.2
		c-0.3,0.6-0.7,1.1-1.3,1.4c-0.5,0.4-1.1,0.5-1.8,0.5c-0.6,0-1.1-0.1-1.6-0.3c-0.5-0.2-0.8-0.5-1.1-0.9c-0.3-0.4-0.5-0.8-0.7-1.3
		c-0.1-0.5-0.2-1-0.2-1.5c0-0.5,0.1-1,0.2-1.4c0.2-0.5,0.4-0.9,0.7-1.3c0.3-0.4,0.6-0.6,1.1-0.9c0.4-0.2,0.9-0.3,1.4-0.3
		c0.5,0,1,0.1,1.4,0.3c0.4,0.2,0.7,0.4,0.9,0.7c0.2,0.3,0.4,0.6,0.5,1c0.1,0.4,0.2,0.8,0.2,1.2V53h-4.9c0,0.5,0,0.9,0.1,1.3
		c0.1,0.4,0.2,0.7,0.4,1.1c0.2,0.3,0.5,0.5,0.8,0.7c0.3,0.2,0.7,0.3,1.1,0.3c0.4,0,0.8-0.1,1.2-0.3c0.3-0.2,0.6-0.6,0.9-1.1
		L190.9,55.2L190.9,55.2z M189.3,52.3c0-0.3,0-0.6-0.1-0.9c0-0.3-0.1-0.6-0.2-0.8c-0.1-0.2-0.3-0.4-0.5-0.6
		c-0.2-0.1-0.5-0.2-0.8-0.2c-0.5,0-1,0.2-1.3,0.7c-0.4,0.4-0.5,1.1-0.6,1.8H189.3L189.3,52.3z M81.6,48.9c0-0.7-0.2-1.2-0.6-1.5
		c-0.4-0.4-0.9-0.6-1.6-0.6h-1.3v4.6h1c0.7,0,1.3-0.2,1.7-0.7C81.4,50.3,81.6,49.7,81.6,48.9L81.6,48.9z M92.4,55.2
		c-0.3,0.6-0.7,1.1-1.3,1.4c-0.5,0.4-1.1,0.5-1.8,0.5c-0.6,0-1.1-0.1-1.6-0.3c-0.5-0.2-0.8-0.5-1.1-0.9c-0.3-0.4-0.5-0.8-0.7-1.3
		c-0.1-0.5-0.2-1-0.2-1.5c0-0.5,0.1-1,0.2-1.4c0.2-0.5,0.4-0.9,0.7-1.3c0.3-0.4,0.6-0.6,1.1-0.9c0.4-0.2,0.9-0.3,1.4-0.3
		c0.5,0,1,0.1,1.4,0.3c0.4,0.2,0.7,0.4,0.9,0.7c0.2,0.3,0.4,0.6,0.5,1c0.1,0.4,0.2,0.8,0.2,1.2V53h-4.9c0,0.5,0,0.9,0.1,1.3
		c0.1,0.4,0.2,0.7,0.4,1.1c0.2,0.3,0.5,0.5,0.8,0.7c0.3,0.2,0.7,0.3,1.1,0.3c0.4,0,0.8-0.1,1.2-0.3c0.3-0.2,0.6-0.6,0.9-1.1
		L92.4,55.2L92.4,55.2z M90.7,52.3c0-0.3,0-0.6-0.1-0.9c0-0.3-0.1-0.6-0.2-0.8c-0.1-0.2-0.3-0.4-0.5-0.6c-0.2-0.1-0.5-0.2-0.8-0.2
		c-0.5,0-1,0.2-1.3,0.7c-0.4,0.4-0.5,1.1-0.6,1.8H90.7L90.7,52.3z M100.1,50.4c0.3,0.4,0.5,0.8,0.7,1.2c0.2,0.5,0.2,1,0.2,1.6
		c0,0.6-0.1,1.1-0.3,1.6c-0.2,0.5-0.5,0.9-0.8,1.2c-0.3,0.3-0.7,0.6-1.1,0.8c-0.4,0.2-0.9,0.3-1.3,0.3c-0.4,0-0.8,0-1.1-0.1
		c-0.3-0.1-0.5-0.2-0.7-0.4h-0.1v2.2c0,0.2,0,0.3,0.1,0.5c0.1,0.1,0.2,0.2,0.3,0.3c0.1,0,0.3,0.1,0.5,0.1c0.2,0,0.4,0.1,0.6,0.1v0.5
		H93v-0.5c0.2,0,0.3,0,0.5,0c0.1,0,0.3,0,0.4-0.1c0.2-0.1,0.3-0.1,0.3-0.3c0.1-0.1,0.1-0.3,0.1-0.4V51c0-0.1,0-0.3-0.1-0.4
		c-0.1-0.1-0.2-0.3-0.3-0.3c-0.1-0.1-0.2-0.1-0.4-0.1c-0.2,0-0.3-0.1-0.5-0.1v-0.5l2.5-0.2l0.1,0.1v0.8l0.1,0c0.3-0.3,0.6-0.6,1-0.8
		c0.4-0.2,0.8-0.3,1.2-0.3c0.5,0,0.9,0.1,1.3,0.3C99.5,49.8,99.8,50,100.1,50.4L100.1,50.4z M98.9,55.7c0.2-0.3,0.4-0.7,0.4-1.1
		c0.1-0.4,0.1-0.9,0.1-1.4c0-0.4,0-0.8-0.1-1.1c-0.1-0.4-0.2-0.7-0.4-1c-0.2-0.3-0.4-0.5-0.7-0.7c-0.3-0.2-0.6-0.3-1-0.3
		c-0.4,0-0.7,0.1-1,0.3c-0.3,0.2-0.5,0.4-0.7,0.6v4.4c0,0.1,0.1,0.3,0.2,0.4c0.1,0.1,0.2,0.3,0.3,0.4c0.2,0.1,0.3,0.2,0.5,0.3
		c0.2,0.1,0.4,0.1,0.7,0.1c0.3,0,0.6-0.1,0.8-0.2C98.5,56.2,98.7,56,98.9,55.7L98.9,55.7z M107.8,50.4c0,0.3-0.1,0.5-0.2,0.7
		c-0.1,0.2-0.3,0.3-0.6,0.3c-0.3,0-0.5-0.1-0.6-0.2c-0.1-0.1-0.2-0.3-0.2-0.5c0-0.1,0-0.2,0-0.3c0-0.1,0-0.2,0.1-0.3
		c-0.2,0-0.5,0.1-0.8,0.3c-0.3,0.2-0.6,0.5-0.8,0.8v4.3c0,0.2,0,0.3,0.1,0.4c0.1,0.1,0.2,0.2,0.3,0.3c0.1,0.1,0.3,0.1,0.5,0.1
		c0.2,0,0.4,0,0.5,0.1v0.5h-3.9v-0.5c0.1,0,0.2,0,0.4,0c0.1,0,0.2,0,0.3-0.1c0.1,0,0.2-0.1,0.3-0.2c0.1-0.1,0.1-0.3,0.1-0.4v-4.6
		c0-0.2,0-0.3-0.1-0.5c-0.1-0.2-0.2-0.3-0.3-0.4c-0.1-0.1-0.2-0.1-0.3-0.1c-0.1,0-0.3,0-0.4-0.1v-0.5l2.5-0.2l0.1,0.1v1h0
		c0.3-0.4,0.7-0.7,1-0.9c0.4-0.2,0.7-0.3,1.1-0.3c0.3,0,0.6,0.1,0.8,0.3C107.7,49.8,107.8,50.1,107.8,50.4L107.8,50.4z M115.1,55.2
		c-0.3,0.6-0.7,1.1-1.3,1.4c-0.5,0.4-1.1,0.5-1.8,0.5c-0.6,0-1.1-0.1-1.6-0.3c-0.5-0.2-0.8-0.5-1.1-0.9c-0.3-0.4-0.5-0.8-0.7-1.3
		c-0.1-0.5-0.2-1-0.2-1.5c0-0.5,0.1-1,0.2-1.4c0.2-0.5,0.4-0.9,0.7-1.3c0.3-0.4,0.6-0.6,1.1-0.9c0.4-0.2,0.9-0.3,1.4-0.3
		c0.5,0,1,0.1,1.4,0.3c0.4,0.2,0.7,0.4,0.9,0.7c0.2,0.3,0.4,0.6,0.5,1c0.1,0.4,0.2,0.8,0.2,1.2V53H110c0,0.5,0,0.9,0.1,1.3
		c0.1,0.4,0.2,0.7,0.4,1.1c0.2,0.3,0.5,0.5,0.8,0.7c0.3,0.2,0.7,0.3,1.1,0.3c0.4,0,0.8-0.1,1.2-0.3c0.3-0.2,0.6-0.6,0.9-1.1
		L115.1,55.2L115.1,55.2z M113.4,52.3c0-0.3,0-0.6-0.1-0.9c0-0.3-0.1-0.6-0.2-0.8c-0.1-0.2-0.3-0.4-0.5-0.6
		c-0.2-0.1-0.5-0.2-0.8-0.2c-0.5,0-1,0.2-1.3,0.7c-0.4,0.4-0.5,1.1-0.6,1.8H113.4L113.4,52.3z M120.9,53.3c0.2,0.2,0.4,0.4,0.5,0.6
		c0.1,0.2,0.2,0.5,0.2,0.9c0,0.7-0.3,1.3-0.8,1.7c-0.5,0.4-1.2,0.7-2,0.7c-0.4,0-0.8-0.1-1.2-0.2c-0.4-0.2-0.6-0.3-0.8-0.4l-0.1,0.5
		H116l-0.1-2.6h0.5c0,0.2,0.1,0.4,0.3,0.7c0.1,0.3,0.3,0.5,0.5,0.7c0.2,0.2,0.4,0.4,0.7,0.6c0.3,0.1,0.6,0.2,0.9,0.2
		c0.5,0,0.9-0.1,1.1-0.3c0.3-0.2,0.4-0.5,0.4-0.9c0-0.2,0-0.4-0.1-0.5c-0.1-0.2-0.2-0.3-0.4-0.4c-0.2-0.1-0.4-0.2-0.6-0.3
		c-0.2-0.1-0.5-0.2-0.8-0.3c-0.2-0.1-0.5-0.2-0.8-0.3c-0.3-0.1-0.5-0.3-0.7-0.4c-0.2-0.2-0.4-0.4-0.5-0.7c-0.1-0.3-0.2-0.6-0.2-0.9
		c0-0.6,0.2-1.1,0.7-1.5c0.5-0.4,1.1-0.6,1.8-0.6c0.3,0,0.6,0,0.9,0.1c0.3,0.1,0.6,0.2,0.7,0.3l0.2-0.4h0.5l0.1,2.4h-0.5
		c-0.1-0.5-0.3-1-0.7-1.3c-0.3-0.3-0.8-0.5-1.3-0.5c-0.4,0-0.7,0.1-1,0.3c-0.2,0.2-0.4,0.5-0.4,0.8c0,0.2,0,0.4,0.1,0.6
		c0.1,0.2,0.2,0.3,0.4,0.4c0.2,0.1,0.3,0.2,0.6,0.3c0.2,0.1,0.5,0.2,0.9,0.3c0.3,0.1,0.6,0.2,0.9,0.4
		C120.4,52.9,120.7,53.1,120.9,53.3L120.9,53.3z M129.3,55.2c-0.3,0.6-0.7,1.1-1.3,1.4c-0.5,0.4-1.1,0.5-1.8,0.5
		c-0.6,0-1.1-0.1-1.6-0.3c-0.5-0.2-0.8-0.5-1.1-0.9c-0.3-0.4-0.5-0.8-0.7-1.3c-0.1-0.5-0.2-1-0.2-1.5c0-0.5,0.1-1,0.2-1.4
		c0.2-0.5,0.4-0.9,0.7-1.3c0.3-0.4,0.6-0.6,1.1-0.9c0.4-0.2,0.9-0.3,1.4-0.3c0.5,0,1,0.1,1.4,0.3c0.4,0.2,0.7,0.4,0.9,0.7
		c0.2,0.3,0.4,0.6,0.5,1c0.1,0.4,0.2,0.8,0.2,1.2V53h-4.9c0,0.5,0,0.9,0.1,1.3c0.1,0.4,0.2,0.7,0.4,1.1c0.2,0.3,0.5,0.5,0.8,0.7
		c0.3,0.2,0.7,0.3,1.1,0.3c0.4,0,0.8-0.1,1.2-0.3c0.3-0.2,0.6-0.6,0.9-1.1L129.3,55.2L129.3,55.2z M127.6,52.3c0-0.3,0-0.6-0.1-0.9
		c0-0.3-0.1-0.6-0.2-0.8c-0.1-0.2-0.3-0.4-0.5-0.6c-0.2-0.1-0.5-0.2-0.8-0.2c-0.5,0-1,0.2-1.3,0.7c-0.3,0.4-0.5,1.1-0.6,1.8H127.6
		L127.6,52.3z M138.4,56.9h-3.7v-0.5c0.1,0,0.2,0,0.4,0c0.1,0,0.3,0,0.3-0.1c0.1,0,0.2-0.1,0.3-0.2c0.1-0.1,0.1-0.3,0.1-0.4v-3.8
		c0-0.5-0.1-0.9-0.4-1.2c-0.3-0.3-0.6-0.4-0.9-0.4c-0.3,0-0.5,0-0.7,0.1c-0.2,0.1-0.4,0.2-0.6,0.3c-0.2,0.1-0.3,0.2-0.4,0.4
		c-0.1,0.1-0.2,0.2-0.2,0.3v4.3c0,0.2,0,0.3,0.1,0.4c0.1,0.1,0.2,0.2,0.3,0.3c0.1,0.1,0.2,0.1,0.3,0.1c0.1,0,0.3,0,0.4,0.1v0.5h-3.7
		v-0.5c0.1,0,0.2,0,0.4,0c0.1,0,0.2,0,0.3-0.1c0.1,0,0.2-0.1,0.3-0.2c0.1-0.1,0.1-0.3,0.1-0.4v-4.6c0-0.2,0-0.3-0.1-0.5
		c-0.1-0.1-0.2-0.3-0.3-0.4c-0.1-0.1-0.2-0.1-0.3-0.1c-0.1,0-0.3,0-0.4-0.1v-0.5l2.5-0.2l0.1,0.1v1h0c0.1-0.1,0.3-0.3,0.5-0.4
		c0.2-0.2,0.4-0.3,0.5-0.4c0.2-0.1,0.4-0.2,0.7-0.3c0.3-0.1,0.5-0.1,0.9-0.1c0.7,0,1.2,0.2,1.6,0.7c0.3,0.4,0.5,1,0.5,1.8v3.9
		c0,0.2,0,0.3,0.1,0.4c0.1,0.1,0.2,0.2,0.3,0.3c0.1,0.1,0.2,0.1,0.3,0.1c0.1,0,0.2,0,0.4,0V56.9L138.4,56.9z M143.9,56.6
		c-0.3,0.1-0.6,0.2-0.9,0.3c-0.3,0.1-0.7,0.1-1.1,0.1c-0.6,0-1.1-0.2-1.3-0.5c-0.3-0.3-0.4-0.8-0.4-1.3v-5.1h-1.3v-0.7h1.4v-2.3h1.4
		v2.3h2.1v0.7h-2.1v4.2c0,0.3,0,0.6,0,0.8c0,0.2,0.1,0.4,0.2,0.5c0.1,0.1,0.2,0.3,0.4,0.3c0.2,0.1,0.4,0.1,0.7,0.1
		c0.1,0,0.3,0,0.6,0c0.2,0,0.4-0.1,0.5-0.1V56.6L143.9,56.6z M148.3,56.9h-3.6v-0.5c0.1,0,0.2,0,0.4,0c0.1,0,0.2,0,0.3-0.1
		c0.1,0,0.2-0.1,0.3-0.2c0.1-0.1,0.1-0.3,0.1-0.4v-4.6c0-0.2,0-0.3-0.1-0.4c-0.1-0.1-0.2-0.2-0.3-0.3c-0.1-0.1-0.2-0.1-0.4-0.2
		c-0.2,0-0.3-0.1-0.5-0.1v-0.5l2.6-0.2l0.1,0.1v6.1c0,0.2,0,0.3,0.1,0.4c0.1,0.1,0.2,0.2,0.3,0.3c0.1,0,0.2,0.1,0.3,0.1
		c0.1,0,0.2,0,0.4,0.1V56.9L148.3,56.9z M147.3,46.4c0,0.3-0.1,0.5-0.3,0.8c-0.2,0.2-0.4,0.3-0.7,0.3c-0.3,0-0.5-0.1-0.7-0.3
		c-0.2-0.2-0.3-0.4-0.3-0.7c0-0.3,0.1-0.5,0.3-0.7c0.2-0.2,0.4-0.3,0.7-0.3c0.3,0,0.5,0.1,0.7,0.3C147.2,46,147.3,46.2,147.3,46.4
		L147.3,46.4z M157.4,56.9h-3.7v-0.5c0.1,0,0.2,0,0.4,0c0.1,0,0.3,0,0.3-0.1c0.1,0,0.2-0.1,0.3-0.2c0.1-0.1,0.1-0.3,0.1-0.4v-3.8
		c0-0.5-0.1-0.9-0.4-1.2c-0.3-0.3-0.6-0.4-0.9-0.4c-0.3,0-0.5,0-0.7,0.1c-0.2,0.1-0.4,0.2-0.6,0.3c-0.2,0.1-0.3,0.2-0.4,0.4
		c-0.1,0.1-0.2,0.2-0.2,0.3v4.3c0,0.2,0,0.3,0.1,0.4c0.1,0.1,0.2,0.2,0.3,0.3c0.1,0.1,0.2,0.1,0.3,0.1c0.1,0,0.3,0,0.4,0.1v0.5h-3.7
		v-0.5c0.1,0,0.2,0,0.4,0c0.1,0,0.2,0,0.3-0.1c0.1,0,0.2-0.1,0.3-0.2c0.1-0.1,0.1-0.3,0.1-0.4v-4.6c0-0.2,0-0.3-0.1-0.5
		c-0.1-0.1-0.2-0.3-0.3-0.4c-0.1-0.1-0.2-0.1-0.3-0.1c-0.1,0-0.3,0-0.4-0.1v-0.5l2.5-0.2l0.1,0.1v1h0c0.1-0.1,0.3-0.3,0.5-0.4
		c0.2-0.2,0.4-0.3,0.5-0.4c0.2-0.1,0.4-0.2,0.7-0.3c0.3-0.1,0.5-0.1,0.9-0.1c0.7,0,1.2,0.2,1.6,0.7c0.3,0.4,0.5,1,0.5,1.8v3.9
		c0,0.2,0,0.3,0.1,0.4c0.1,0.1,0.2,0.2,0.3,0.3c0.1,0.1,0.2,0.1,0.3,0.1c0.1,0,0.2,0,0.4,0V56.9L157.4,56.9z M164.7,56.2
		c0.2,0.2,0.4,0.4,0.5,0.7c0.1,0.2,0.2,0.5,0.2,0.9c0,0.4-0.1,0.7-0.2,1c-0.2,0.3-0.4,0.6-0.7,0.8c-0.3,0.2-0.7,0.4-1.2,0.6
		c-0.5,0.1-1.1,0.2-1.7,0.2c-1.1,0-2-0.2-2.5-0.5c-0.6-0.3-0.8-0.8-0.8-1.4c0-0.5,0.2-0.9,0.6-1.2c0.4-0.3,0.9-0.5,1.5-0.5v-0.1
		c-0.2,0-0.3-0.1-0.5-0.2c-0.2-0.1-0.3-0.1-0.4-0.2c-0.1-0.1-0.2-0.2-0.3-0.4c-0.1-0.1-0.1-0.3-0.1-0.5c0-0.3,0.1-0.5,0.3-0.7
		c0.2-0.2,0.5-0.4,0.9-0.6v-0.1c-0.5-0.2-0.9-0.5-1.1-0.9c-0.3-0.4-0.4-0.8-0.4-1.2c0-0.7,0.3-1.3,0.8-1.7c0.5-0.5,1.2-0.7,2-0.7
		c0.2,0,0.5,0,0.7,0.1c0.2,0,0.5,0.1,0.7,0.2h2.6v0.7h-1.8v0c0.2,0.2,0.3,0.5,0.4,0.7c0.1,0.3,0.1,0.5,0.1,0.8
		c0,0.7-0.3,1.2-0.8,1.7c-0.5,0.5-1.2,0.7-1.9,0.7h-0.9c-0.1,0-0.2,0.1-0.4,0.2c-0.1,0.1-0.2,0.3-0.2,0.4c0,0.2,0.1,0.3,0.2,0.4
		c0.1,0.1,0.2,0.2,0.4,0.2c0.1,0,0.3,0.1,0.5,0.1c0.2,0,0.4,0,0.6,0c0.2,0,0.5,0,0.9,0c0.4,0,0.7,0,0.8,0c0.2,0,0.5,0.1,0.7,0.2
		C164.3,55.8,164.5,56,164.7,56.2L164.7,56.2z M162.7,51.7c0-0.6-0.1-1.1-0.4-1.4c-0.2-0.4-0.6-0.5-1-0.5c-0.2,0-0.4,0-0.6,0.1
		c-0.2,0.1-0.3,0.2-0.4,0.4c-0.1,0.2-0.2,0.4-0.2,0.6c0,0.2-0.1,0.5-0.1,0.7c0,0.6,0.1,1,0.4,1.4c0.2,0.4,0.6,0.5,1,0.5
		c0.4,0,0.8-0.2,1-0.5C162.6,52.7,162.7,52.3,162.7,51.7L162.7,51.7z M164.1,58c0-0.3-0.1-0.5-0.2-0.7c-0.1-0.2-0.3-0.3-0.6-0.4
		c-0.1,0-0.4,0-0.9-0.1c-0.4,0-0.9,0-1.5,0c-0.5,0.1-0.9,0.3-1.2,0.5c-0.2,0.3-0.3,0.6-0.3,1c0,0.2,0,0.3,0.1,0.5
		c0.1,0.2,0.2,0.3,0.4,0.4c0.2,0.1,0.4,0.2,0.7,0.3c0.3,0.1,0.7,0.1,1.1,0.1c0.7,0,1.3-0.1,1.7-0.4C163.9,59,164.1,58.6,164.1,58
		L164.1,58z"/>
	<path id="company_name" class="st2" d="M75.1,7.1h14.1v1.2h-0.6c-1,0-1.8,0.1-2.3,0.3c-0.5,0.2-0.9,0.6-1.2,1.2
		c-0.2,0.6-0.3,1.4-0.3,2.5v7.5l8.5-7.4c0.8-0.7,1.3-1.3,1.6-1.7c0.3-0.4,0.5-0.8,0.5-1.2c0-0.5-0.2-0.8-0.5-1
		c-0.3-0.2-0.9-0.3-1.7-0.3h-0.5V7.1h11.1v1.2c-0.6,0-1.3,0.1-1.9,0.4c-0.6,0.2-1.3,0.6-2,1c-0.7,0.5-1.5,1-2.2,1.7l-7.8,6.7
		l10.3,9.7c1.6,1.5,3,2.6,4.1,3.2c1.1,0.6,2.2,1,3.3,1v1.3H93V32c1.1,0,1.8-0.1,2.1-0.2c0.4-0.1,0.5-0.4,0.5-0.7
		c0-0.2-0.1-0.5-0.3-0.7c-0.2-0.3-0.7-0.7-1.4-1.4l-9.1-8.4V28c0,1.1,0.1,1.9,0.3,2.5c0.2,0.6,0.6,1,1.1,1.2
		c0.5,0.2,1.3,0.3,2.3,0.3h0.6v1.3H75.1V32h0.6c1,0,1.7-0.1,2.3-0.3c0.5-0.2,0.9-0.6,1.1-1.2c0.2-0.6,0.3-1.4,0.3-2.5V12.4
		c0-1.1-0.1-1.9-0.4-2.5c-0.2-0.6-0.6-1-1.2-1.2c-0.5-0.2-1.3-0.3-2.2-0.3h-0.6V7.1L75.1,7.1z M117.1,26.3l-0.7,1.6
		c-0.5,1-0.7,1.7-0.7,2.1c0,1.4,1.1,2.1,3.2,2.1v1.3h-9.4V32c0.9,0,1.7-0.4,2.5-1c0.7-0.6,1.4-1.7,2.1-3.1l9.8-21.3h1.1l11.7,23.2
		c0.3,0.6,0.6,1,0.9,1.3c0.3,0.3,0.7,0.5,1.1,0.6c0.4,0.1,0.9,0.2,1.6,0.2v1.3h-11.9V32c1.1,0,1.8-0.1,2.2-0.3
		c0.4-0.2,0.6-0.5,0.6-1c0-0.5-0.2-1.2-0.7-2.1l-1.2-2.3H117.1L117.1,26.3z M128.1,24.2l-5.2-10.4l-4.8,10.4H128.1L128.1,24.2z
		 M141.7,7.1h14.6v1.2h-0.9c-1,0-1.8,0.1-2.3,0.3c-0.5,0.2-0.9,0.6-1.1,1.2c-0.2,0.6-0.3,1.4-0.3,2.5V24c0,1.6,0.4,3,1.1,4.2
		c0.7,1.1,1.7,2,2.9,2.5c1.2,0.5,2.5,0.8,4,0.8c2.5,0,4.6-0.7,6.3-2.1c1.7-1.4,2.5-3.4,2.5-5.7V12c0-1.3-0.3-2.3-0.8-2.8
		c-0.6-0.5-1.4-0.8-2.5-0.8h-1V7.1h10.6v1.2h-0.6c-1,0-1.7,0.1-2.3,0.3c-0.5,0.2-0.9,0.6-1.1,1.2c-0.2,0.6-0.3,1.4-0.3,2.5v11
		c0,2.4-0.5,4.4-1.6,5.9c-1.1,1.6-2.5,2.8-4.4,3.5c-1.8,0.8-3.8,1.1-5.9,1.1c-2.2,0-4.3-0.4-6.2-1.1c-1.9-0.7-3.4-1.8-4.5-3.2
		c-1.1-1.4-1.6-3.2-1.6-5.2V11.9c0-1.3-0.3-2.2-0.8-2.7c-0.5-0.6-1.4-0.9-2.7-0.9h-1V7.1L141.7,7.1z M201.3,7.1l0.3,6.4h-1.3
		c-0.2-0.9-0.5-1.6-0.8-2.2c-0.3-0.6-0.7-1.1-1.1-1.4c-0.4-0.3-0.9-0.5-1.4-0.6c-0.5-0.1-1.2-0.1-2-0.1h-8.9v9.3h6.8
		c0.9,0,1.5-0.1,2-0.3c0.5-0.2,0.9-0.6,1.1-1.1c0.2-0.5,0.4-1.3,0.4-2.3h1.3v9.4h-1.3c0-1.4-0.3-2.3-0.8-2.8
		c-0.5-0.5-1.3-0.7-2.5-0.7h-7.1V28c0,1.1,0.1,1.9,0.3,2.5c0.2,0.6,0.6,1,1.1,1.2c0.5,0.2,1.3,0.3,2.3,0.3h1.5v1.3h-15.4V32h1.1
		c1,0,1.7-0.1,2.2-0.3c0.5-0.2,0.9-0.6,1.1-1.2c0.2-0.6,0.3-1.4,0.3-2.5V12.3c0-1.1-0.1-1.9-0.3-2.5c-0.2-0.6-0.6-1-1.1-1.2
		c-0.5-0.2-1.3-0.3-2.2-0.3h-1.1V7.1H201.3L201.3,7.1z M232.8,7.1H243v1.2h-0.7c-1,0-1.8,0.1-2.3,0.3c-0.5,0.2-0.9,0.6-1.1,1.2
		c-0.2,0.6-0.3,1.4-0.3,2.5V28c0,1.1,0.1,1.9,0.3,2.5c0.2,0.6,0.6,1,1.1,1.2c0.5,0.2,1.3,0.3,2.3,0.3h0.7v1.3h-14.4V32h0.8
		c1,0,1.8-0.1,2.3-0.3c0.5-0.2,0.9-0.6,1.1-1.2c0.2-0.6,0.3-1.4,0.3-2.5V11.1H233l-10.4,22.2h-1.2l-10.5-21.9h-0.1V28
		c0,1,0.1,1.8,0.3,2.4c0.2,0.6,0.6,1,1.1,1.3c0.5,0.3,1.3,0.4,2.3,0.4c0.1,0,0.2,0,0.3,0c0.1,0,0.2,0,0.3,0v1.3h-10.5V32h0.5
		c1.1,0,1.9-0.1,2.4-0.4c0.5-0.2,0.9-0.6,1.1-1.2c0.2-0.6,0.3-1.4,0.3-2.5V12.4c0-1-0.1-1.8-0.3-2.4c-0.2-0.6-0.5-1-1.1-1.3
		c-0.5-0.3-1.3-0.4-2.3-0.4h-0.6V7.1h10.2l9.1,19L232.8,7.1L232.8,7.1z M252.7,26.3l-0.7,1.6c-0.5,1-0.7,1.7-0.7,2.1
		c0,1.4,1.1,2.1,3.2,2.1v1.3h-9.4V32c0.9,0,1.7-0.4,2.5-1c0.7-0.6,1.4-1.7,2.1-3.1l9.8-21.3h1.1l11.7,23.2c0.3,0.6,0.6,1,0.9,1.3
		c0.3,0.3,0.7,0.5,1.1,0.6c0.4,0.1,0.9,0.2,1.6,0.2v1.3H264V32c1.1,0,1.8-0.1,2.2-0.3c0.4-0.2,0.6-0.5,0.6-1c0-0.5-0.2-1.2-0.7-2.1
		l-1.2-2.3H252.7L252.7,26.3z M263.7,24.2l-5.2-10.4l-4.8,10.4H263.7L263.7,24.2z M298.8,7.1h11.3v1.2h-1.2c-0.8,0-1.5,0.1-2,0.4
		c-0.5,0.3-0.8,0.7-1,1.3c-0.2,0.6-0.3,1.4-0.3,2.4v21.1h-0.8L284.3,13v15c0,1.1,0.1,1.9,0.3,2.5c0.2,0.6,0.6,1,1.1,1.2
		c0.5,0.2,1.3,0.3,2.3,0.3h1.2v1.3h-11.7V32h1.5c1.1,0,2-0.3,2.5-0.8c0.5-0.6,0.8-1.5,0.8-2.8V11.1c-0.6-0.8-1.4-1.5-2.2-2
		c-0.8-0.5-1.7-0.8-2.6-0.8V7.1h8.4L303.6,25V12c0-1.3-0.3-2.2-0.8-2.8c-0.5-0.6-1.3-0.9-2.5-0.9h-1.5V7.1L298.8,7.1z M347,26.2h1.3
		l-2.4,7.1h-23.7V32h0.9c1,0,1.7-0.1,2.2-0.3c0.5-0.2,0.9-0.6,1.1-1.2c0.2-0.6,0.3-1.4,0.3-2.5V12.4c0-1.5-0.2-2.6-0.7-3.2
		c-0.5-0.6-1.5-0.9-3-0.9h-0.7V7.1h14.4v1.2h-0.9c-1,0-1.8,0.1-2.3,0.3c-0.5,0.2-0.9,0.6-1.1,1.2c-0.2,0.6-0.3,1.4-0.3,2.5v16.1
		c0,0.9,0.1,1.5,0.2,1.8c0.1,0.3,0.3,0.6,0.6,0.7c0.3,0.1,0.9,0.2,1.6,0.2h4.8c1.3,0,2.4-0.1,3.2-0.4c0.8-0.2,1.6-0.7,2.3-1.4
		C345.5,28.7,346.2,27.7,347,26.2L347,26.2z M357.3,26.3l-0.7,1.6c-0.5,1-0.7,1.7-0.7,2.1c0,1.4,1.1,2.1,3.2,2.1v1.3h-9.4V32
		c0.9,0,1.7-0.4,2.5-1c0.7-0.6,1.4-1.7,2.1-3.1l9.8-21.3h1.1l11.7,23.2c0.3,0.6,0.6,1,0.9,1.3c0.3,0.3,0.7,0.5,1.1,0.6
		c0.4,0.1,0.9,0.2,1.6,0.2v1.3h-11.9V32c1.1,0,1.8-0.1,2.2-0.3c0.4-0.2,0.6-0.5,0.6-1c0-0.5-0.2-1.2-0.7-2.1l-1.2-2.3H357.3
		L357.3,26.3z M368.3,24.2L363,13.8l-4.8,10.4H368.3L368.3,24.2z M407.1,34H406l-6.9-16.2L392.7,34h-1.1L383,13.4
		c-0.7-1.7-1.2-2.8-1.6-3.5c-0.3-0.6-0.7-1.1-1.1-1.3c-0.4-0.2-0.9-0.3-1.5-0.3V7.1H390v1.2c-0.9,0-1.6,0.2-2,0.4
		c-0.4,0.2-0.6,0.6-0.6,1.1c0,0.4,0.3,1.3,0.9,2.7l5.5,13.2l4.2-10.4l-1.3-3c-0.5-1.1-0.9-1.9-1.3-2.5c-0.4-0.6-0.8-1-1.3-1.2
		c-0.5-0.2-1.1-0.3-1.9-0.3V7.1H404v1.2c-0.1,0-0.2,0-0.4,0c-1.3,0-2,0.5-2,1.5c0,0.4,0.1,0.9,0.3,1.4l0.8,1.7l5.5,12.6l4.2-11.2
		c0.5-1.4,0.9-2.4,1-2.9c0.2-0.6,0.2-1.1,0.2-1.4c0-0.7-0.2-1.1-0.6-1.3c-0.4-0.2-1.2-0.3-2.3-0.3V7.1h7.9v1.2
		c-0.6,0.1-1.1,0.3-1.5,0.5c-0.3,0.2-0.7,0.6-1,1.2c-0.3,0.5-0.7,1.6-1.3,3.2L407.1,34L407.1,34z"/>
</g>
</svg>
