<?xml version="1.0" encoding="utf-8"?>
<!-- Generator: Adobe Illustrator 21.1.0, SVG Export Plug-In . SVG Version: 6.00 Build 0)  -->
<!DOCTYPE svg PUBLIC "-//W3C//DTD SVG 1.1//EN" "http://www.w3.org/Graphics/SVG/1.1/DTD/svg11.dtd">
<svg version="1.1" id="Layer_1" xmlns="http://www.w3.org/2000/svg" xmlns:xlink="http://www.w3.org/1999/xlink" x="0px" y="0px"
	 width="59.333px" height="28.464px" viewBox="0 0 59.333 28.464" enable-background="new 0 0 59.333 28.464" xml:space="preserve">
<path fill-rule="evenodd" clip-rule="evenodd" fill="#FF3600" d="M6.02,12.83c-0.663,0-1.204-0.539-1.204-1.204
	c0-0.665,0.539-1.204,1.204-1.204h13.044V7.617H1.204C0.541,7.617,0,7.078,0,6.413s0.539-1.204,1.204-1.204h17.86V2.4l-8.228-0.001
	c-0.661,0-1.199-0.537-1.199-1.199C9.637,0.537,10.175,0,10.837,0c16.165,0.001,32.331,0.001,48.496,0.001l0,28.462
	c-14.561,0-29.121,0-43.682,0c-0.665,0-1.204-0.539-1.204-1.204s0.539-1.204,1.204-1.204h3.413v-2.8H6.02
	c-0.664,0-1.204-0.539-1.204-1.204s0.539-1.204,1.204-1.204h13.044v-2.805h-8.228c-0.664,0-1.204-0.539-1.204-1.204
	s0.539-1.204,1.204-1.204h10.636v10.43l11.832-11.832L21.472,2.399l0,10.431H6.02L6.02,12.83z M24.877,26.064l28.643,0.001
	L43.39,15.934l-4.191,4.191l-4.191-4.191L24.877,26.064L24.877,26.064z M56.925,26.064V2.4L45.092,14.232L56.925,26.064
	L56.925,26.064z M53.519,2.4l-28.642,0l14.321,14.321L53.519,2.4z"/>
</svg>
